<svg preserveAspectRatio="none" width="100%" height="100%" overflow="visible" style="display: block;" viewBox="0 0 12 10" fill="none" xmlns="http://www.w3.org/2000/svg">
<path id="Vector" d="M11.5131 5.42173L7.29434 9.64048C7.16225 9.77257 6.98309 9.84677 6.79629 9.84677C6.60949 9.84677 6.43033 9.77257 6.29824 9.64048C6.16615 9.50839 6.09194 9.32923 6.09194 9.14243C6.09194 8.95563 6.16615 8.77647 6.29824 8.64438L9.31641 5.62739H0.703125C0.516645 5.62739 0.337802 5.55331 0.205941 5.42145C0.0740791 5.28959 0 5.11075 0 4.92427C0 4.73779 0.0740791 4.55894 0.205941 4.42708C0.337802 4.29522 0.516645 4.22114 0.703125 4.22114H9.31641L6.29941 1.20239C6.16732 1.0703 6.09312 0.891148 6.09312 0.704344C6.09312 0.517541 6.16732 0.338388 6.29941 0.206298C6.4315 0.0742074 6.61066 1.9683e-09 6.79746 0C6.98426 -1.9683e-09 7.16342 0.0742074 7.29551 0.206298L11.5143 4.42505C11.5798 4.49046 11.6318 4.56818 11.6673 4.65374C11.7027 4.7393 11.7209 4.83102 11.7208 4.92363C11.7207 5.01624 11.7023 5.10792 11.6666 5.1934C11.631 5.27888 11.5788 5.35647 11.5131 5.42173Z" fill="var(--fill-0, white)"/>
</svg>
