<svg preserveAspectRatio="none" width="100%" height="100%" overflow="visible" style="display: block;" viewBox="0 0 28 33" fill="none" xmlns="http://www.w3.org/2000/svg">
<g id="Group">
<path id="Vector" d="M10.6725 24.1481L9.12875 24.8986C5.99375 25.7662 4.42467 26.2001 3.57917 25.2865C2.73367 24.3745 3.17067 22.7215 4.04625 19.4123L4.27108 18.5573C4.51967 17.6152 4.64475 17.1466 4.583 16.6795C4.51967 16.214 4.27742 15.8039 3.79292 14.9853L3.35275 14.2412C1.6475 11.3579 0.795666 9.91708 1.3625 8.76916C1.9325 7.62283 3.54592 7.52941 6.77433 7.34416L7.60875 7.29666C8.52708 7.24283 8.98467 7.21749 9.38525 7.00374C9.78425 6.78999 10.0803 6.41474 10.6725 5.66108L11.2108 4.97708C13.2945 2.32816 14.3363 1.00449 15.5333 1.20874C16.7303 1.41299 17.2908 3.00899 18.4102 6.20258L18.7 7.02908C19.0182 7.93633 19.1782 8.39074 19.4869 8.72324C19.7972 9.05891 20.2216 9.23624 21.0718 9.58933L21.8461 9.91233C24.8386 11.1568 26.3348 11.7807 26.5042 13.0521C26.6499 14.1382 25.749 15.0835 23.9076 16.6779" stroke="var(--stroke-0, #057C8B)" stroke-width="2.375"/>
<path id="Vector_2" d="M19.004 14.9473C17.4412 13.079 16.6607 12.1448 15.7613 12.2873C14.8636 12.4314 14.444 13.5587 13.6048 15.8134L13.3863 16.3961C13.1488 17.0373 13.0285 17.3572 12.7957 17.5931C12.5646 17.829 12.2447 17.9541 11.6082 18.2042L11.0272 18.4307C8.78358 19.3094 7.661 19.7496 7.53275 20.6473C7.40608 21.5451 8.35608 22.3082 10.2577 23.8314L10.7485 24.2272C11.29 24.6595 11.5607 24.8764 11.7159 25.1725C11.8742 25.4686 11.898 25.8122 11.9471 26.4977L11.993 27.1216C12.1672 29.533 12.2558 30.7395 13.0744 31.1512C13.893 31.5628 14.9016 30.9057 16.9172 29.5947L17.4381 29.2543C18.0112 28.8822 18.2978 28.6954 18.6256 28.6416C18.9549 28.5893 19.2906 28.6764 19.9572 28.8506L20.5667 29.0089C22.918 29.6201 24.0944 29.9272 24.7293 29.2828C25.3627 28.6384 25.0349 27.4715 24.3794 25.1345L24.2084 24.5328C24.0232 23.8678 23.9297 23.5353 23.9757 23.2076C24.0232 22.8782 24.2052 22.5901 24.5678 22.0106L24.9003 21.4849C26.1781 19.4503 26.8162 18.4338 26.3887 17.6247C25.9627 16.8157 24.7531 16.7492 22.3322 16.6193L21.7052 16.5845C21.018 16.5481 20.6728 16.5291 20.3736 16.3787C20.0727 16.2282 19.8511 15.9622 19.4077 15.4302L19.004 14.9473Z" stroke="var(--stroke-0, #057C8B)" stroke-width="2.375"/>
</g>
</svg>
