<svg preserveAspectRatio="none" width="100%" height="100%" overflow="visible" style="display: block;" viewBox="0 0 38 38" fill="none" xmlns="http://www.w3.org/2000/svg">
<g id="7WLnhBbV5RbKHVHNu0NJPMQIcXc.svg">
<path id="Vector" d="M14.25 15.8333C17.7478 15.8333 20.5833 12.9978 20.5833 9.5C20.5833 6.0022 17.7478 3.16667 14.25 3.16667C10.7522 3.16667 7.91667 6.0022 7.91667 9.5C7.91667 12.9978 10.7522 15.8333 14.25 15.8333Z" stroke="var(--stroke-0, #3D6E70)" stroke-width="2.375"/>
<path id="Vector_2" d="M14.25 33.25C20.3712 33.25 25.3333 30.4145 25.3333 26.9167C25.3333 23.4189 20.3712 20.5833 14.25 20.5833C8.12884 20.5833 3.16667 23.4189 3.16667 26.9167C3.16667 30.4145 8.12884 33.25 14.25 33.25Z" stroke="var(--stroke-0, #3D6E70)" stroke-width="2.375"/>
<path id="Vector_3" d="M28.5 13.6863L27.6577 14.5223C27.768 14.6334 27.8993 14.7215 28.0438 14.7817C28.1884 14.8418 28.3434 14.8728 28.5 14.8728C28.6566 14.8728 28.8116 14.8418 28.9562 14.7817C29.1007 14.7215 29.232 14.6334 29.3423 14.5223L28.5 13.6863ZM27.778 18.9082C27.0069 18.3208 26.3134 17.8505 25.7545 17.2409C25.2368 16.6757 24.9375 16.093 24.9375 15.3568H22.5625C22.5625 16.8609 23.218 17.9898 24.0033 18.8464C24.7491 19.6587 25.7086 20.3189 26.3372 20.7971L27.778 18.9082ZM24.9375 15.3568C24.9375 14.7044 25.3175 14.1788 25.8036 13.9634C26.2263 13.7766 26.8961 13.7576 27.6577 14.5223L29.3423 12.8488C27.9648 11.4633 26.2628 11.1625 24.8425 11.7911C24.1583 12.1017 23.5789 12.604 23.1742 13.2371C22.7696 13.8702 22.5571 14.6054 22.5625 15.3568H24.9375ZM26.3372 20.7971C26.5715 20.976 26.8787 21.2087 27.2001 21.3924C27.5231 21.5761 27.9712 21.7708 28.5 21.7708V19.3958C28.5538 19.3958 28.5269 19.4133 28.3702 19.3262C28.2118 19.2375 28.0345 19.1045 27.778 18.9082L26.3372 20.7971ZM30.6628 20.7971C31.2914 20.3173 32.2509 19.6587 32.9951 18.8464C33.782 17.9898 34.4375 16.8593 34.4375 15.3583H32.0625C32.0625 16.093 31.7632 16.6757 31.2455 17.2425C30.6866 17.8505 29.9931 18.3208 29.222 18.9082L30.6628 20.7971ZM34.4375 15.3583C34.4375 13.775 33.5112 12.3896 32.1575 11.7911C30.7388 11.1625 29.0336 11.4633 27.6577 12.8488L29.3423 14.5223C30.1023 13.7576 30.7737 13.7766 31.1948 13.9634C31.4583 14.0875 31.6803 14.2849 31.8342 14.5321C31.9881 14.7793 32.0674 15.0672 32.0625 15.3583H34.4375ZM29.222 18.9082C29.0337 19.06 28.8359 19.1996 28.6298 19.3262C28.4731 19.4148 28.4462 19.3958 28.5 19.3958V21.7708C29.0288 21.7708 29.4769 21.5761 29.7983 21.3924C30.1213 21.2103 30.4285 20.976 30.6628 20.7971L29.222 18.9082Z" fill="var(--fill-0, #3D6E70)"/>
</g>
</svg>
