<svg version="1.2" xmlns="http://www.w3.org/2000/svg" viewBox="0 0 500 500" width="500" height="500">
	<title>3793094</title>
	<style>
		.s0 { fill: #ebebeb } 
		.s1 { fill: #f5f5f5 } 
		.s2 { fill: #f0f0f0 } 
		.s3 { fill: #e6e6e6 } 
		.s4 { fill: #407bff } 
		.s5 { opacity: .7;fill: #ffffff } 
		.s6 { opacity: .2;fill: #407bff } 
		.s7 { opacity: .3;fill: #ffffff } 
		.s8 { opacity: .4;fill: #407bff } 
		.s9 { opacity: .2;fill: #000000 } 
		.s10 { opacity: .2;fill: #ffffff } 
		.s11 { opacity: .3;fill: #407bff } 
		.s12 { opacity: .8;fill: #ffffff } 
		.s13 { fill: #263238 } 
		.s14 { fill: #ffffff } 
		.s15 { opacity: .5;fill: #ffffff } 
		.s16 { opacity: .6;fill: #407bff } 
		.s17 { opacity: .5;fill: #407bff } 
		.s18 { opacity: .6;fill: #ffffff } 
	</style>
	<g id="Background Complete">
		<g id="&lt;Group&gt;">
			<path id="&lt;Compound Path&gt;" class="s0" d="m238.4 445h-193.1c-3.1 0-5.7-2.5-5.7-5.7v-378.6c0-3.2 2.6-5.7 5.7-5.7h193.1c3.1 0 5.7 2.5 5.7 5.7v378.6c0 3.2-2.6 5.7-5.7 5.7zm-193.1-389.8c-3 0-5.5 2.5-5.5 5.5v378.6c0 3 2.5 5.5 5.5 5.5h193.1c3 0 5.5-2.5 5.5-5.5v-378.6c0-3-2.5-5.5-5.5-5.5z"/>
			<path id="&lt;Compound Path&gt;" class="s0" d="m454.7 445h-193.1c-3.1 0-5.7-2.5-5.7-5.7v-378.6c0-3.2 2.6-5.7 5.7-5.7h193.1c3.1 0 5.7 2.5 5.7 5.7v378.6c0 3.2-2.6 5.7-5.7 5.7zm-193.1-389.8c-3 0-5.5 2.5-5.5 5.5v378.6c0 3 2.5 5.5 5.5 5.5h193.1c3 0 5.5-2.5 5.5-5.5v-378.6c0-3-2.5-5.5-5.5-5.5z"/>
		</g>
		<g id="&lt;Group&gt;">
			<g id="&lt;Group&gt;">
				<path id="&lt;Path&gt;" class="s0" d="m113.1 168.2l1.6 3.3 3.6 0.5-2.6 2.6 0.6 3.6-3.2-1.7-3.3 1.7 0.6-3.6-2.6-2.6 3.6-0.5z"/>
				<path id="&lt;Path&gt;" class="s1" d="m436.7 322.5l1.6 3.3 3.6 0.5-2.6 2.5 0.6 3.6-3.2-1.7-3.2 1.7 0.6-3.6-2.6-2.5 3.6-0.5z"/>
				<path id="&lt;Path&gt;" class="s1" d="m372.6 417.6l1.6 3.2 3.6 0.6-2.6 2.5 0.6 3.6-3.2-1.7-3.2 1.7 0.6-3.6-2.6-2.5 3.6-0.6z"/>
				<path id="&lt;Path&gt;" class="s0" d="m225.9 110.2l0.6 1.2 1.4 0.2c0.3 0 0.5 0.4 0.2 0.7l-1 0.9 0.3 1.3c0 0.4-0.3 0.6-0.6 0.5l-1.2-0.7-1.2 0.7c-0.3 0.1-0.7-0.1-0.6-0.5l0.2-1.3-1-0.9c-0.2-0.3-0.1-0.7 0.3-0.7l1.3-0.2 0.6-1.2c0.2-0.3 0.6-0.3 0.7 0z"/>
				<path id="&lt;Path&gt;" class="s1" d="m60.8 402l0.6 1.2 1.3 0.2c0.4 0.1 0.5 0.5 0.2 0.7l-0.9 1 0.2 1.3c0.1 0.3-0.3 0.6-0.6 0.4l-1.2-0.6-1.2 0.6c-0.3 0.2-0.6-0.1-0.6-0.4l0.2-1.3-0.9-1c-0.3-0.2-0.1-0.6 0.2-0.7l1.3-0.2 0.6-1.2c0.2-0.3 0.6-0.3 0.8 0z"/>
				<path id="&lt;Path&gt;" class="s0" d="m87.8 97.3l0.6 1.2 1.3 0.2c0.3 0.1 0.5 0.5 0.2 0.7l-0.9 1 0.2 1.3c0 0.3-0.3 0.6-0.6 0.4l-1.2-0.6-1.2 0.6c-0.3 0.2-0.7-0.1-0.6-0.4l0.2-1.3-0.9-1c-0.3-0.2-0.2-0.6 0.2-0.7l1.3-0.2 0.6-1.2c0.2-0.3 0.6-0.3 0.8 0z"/>
				<path id="&lt;Path&gt;" class="s0" d="m86.1 338.3c0 0.8-0.6 1.3-1.3 1.3-0.7 0-1.3-0.5-1.3-1.3 0-0.7 0.6-1.3 1.3-1.3 0.7 0 1.3 0.6 1.3 1.3z"/>
				<path id="&lt;Path&gt;" class="s0" d="m275.7 171.9c0 0.7-0.6 1.3-1.4 1.3-0.7 0-1.3-0.6-1.3-1.3 0-0.7 0.6-1.3 1.3-1.3 0.8 0 1.4 0.6 1.4 1.3z"/>
				<path id="&lt;Path&gt;" class="s1" d="m206.7 98.4c0 0.7-0.6 1.3-1.3 1.3-0.8 0-1.3-0.6-1.3-1.3 0-0.7 0.5-1.3 1.3-1.3 0.7 0 1.3 0.6 1.3 1.3z"/>
			</g>
			<g id="&lt;Group&gt;">
				<path id="&lt;Path&gt;" class="s2" d="m214.5 415.4c0-4.1-3.3-7.4-7.4-7.4-4 0-7.3 3.3-7.3 7.4 0 4 3.3 7.3 7.3 7.3 4.1 0 7.4-3.3 7.4-7.3z"/>
			</g>
			<path id="&lt;Path&gt;" class="s3" d="m204.6 411.1c-1.6 0-3 0.5-4.2 1.4-0.4 0.9-0.6 1.8-0.6 2.9 0 4 3.3 7.3 7.3 7.3 1.4 0 2.7-0.4 3.8-1q0 0 0 0c0.6-1.1 0.9-2.2 0.9-3.5 0-3.9-3.2-7.1-7.2-7.1z"/>
		</g>
	</g>
	<g id="404">
		<g id="&lt;Group&gt;">
			<path id="&lt;Compound Path&gt;" class="s4" d="m147.7 287.6h-60.9v-27.4l60.9-72.4h29.1v73.9h15.1v25.9h-15.1v22.5h-29.1zm0-25.9v-37.8l-32.2 37.8z"/>
			<path id="&lt;Compound Path&gt;" class="s4" d="m202.3 249.5q0-34.3 12.3-48 12.4-13.7 37.6-13.7 12.2 0 20 3 7.8 3 12.7 7.8 4.9 4.8 7.7 10.1 2.9 5.3 4.6 12.3 3.4 13.5 3.4 28.1 0 32.7-11.1 47.9-11.1 15.2-38.2 15.2-15.1 0-24.5-4.9-9.3-4.8-15.3-14.2-4.4-6.6-6.8-18.1-2.4-11.5-2.4-25.5zm33.1 0.1q0 23 4.1 31.4 4.1 8.4 11.8 8.4 5 0 8.8-3.6 3.7-3.6 5.5-11.3 1.7-7.7 1.7-24 0-24-4-32.2-4.1-8.2-12.2-8.2-8.3 0-12 8.4-3.7 8.4-3.7 31.1z"/>
			<path id="&lt;Compound Path&gt;" class="s4" d="m371.7 287.6h-60.8v-27.4l60.8-72.4h29.2v73.9h15v25.9h-15v22.5h-29.2zm0-25.9v-37.8l-32.1 37.8z"/>
		</g>
	</g>
	<g id="Planets">
		<g id="&lt;Group&gt;">
			<g id="&lt;Group&gt;" style="opacity: .3">
				<path id="&lt;Path&gt;" class="s4" d="m201 145.6c0 1-0.9 1.9-1.9 1.9-1 0-1.9-0.9-1.9-1.9 0-1 0.9-1.8 1.9-1.8 1 0 1.9 0.8 1.9 1.8z"/>
				<path id="&lt;Path&gt;" class="s4" d="m74.3 216.1c0 0.8-0.6 1.4-1.3 1.4-0.8 0-1.4-0.6-1.4-1.4 0-0.7 0.6-1.3 1.4-1.3 0.7 0 1.3 0.6 1.3 1.3z"/>
				<path id="&lt;Path&gt;" class="s4" d="m292.9 408.3c0 1.1-0.8 1.9-1.8 1.9-1.1 0-1.9-0.8-1.9-1.9 0-1 0.8-1.9 1.9-1.9 1 0 1.8 0.9 1.8 1.9z"/>
				<path id="&lt;Path&gt;" class="s4" d="m337.8 332c0 0.7-0.6 1.3-1.3 1.3-0.7 0-1.3-0.6-1.3-1.3 0-0.7 0.6-1.3 1.3-1.3 0.7 0 1.3 0.6 1.3 1.3z"/>
				<path id="&lt;Path&gt;" class="s4" d="m424.2 95.6c0 0.7-0.6 1.3-1.4 1.3-0.7 0-1.3-0.6-1.3-1.3 0-0.7 0.6-1.3 1.3-1.3 0.8 0 1.4 0.6 1.4 1.3z"/>
				<path id="&lt;Path&gt;" class="s4" d="m172.8 69c0 0.7-0.6 1.3-1.4 1.3-0.7 0-1.3-0.6-1.3-1.3 0-0.8 0.6-1.4 1.3-1.4 0.8 0 1.4 0.6 1.4 1.4z"/>
				<path id="&lt;Path&gt;" class="s4" d="m279 136.9c0 0.8-0.6 1.4-1.3 1.4-0.7 0-1.3-0.6-1.3-1.4 0-0.7 0.6-1.3 1.3-1.3 0.7 0 1.3 0.6 1.3 1.3z"/>
			</g>
			<g id="&lt;Group&gt;">
				<g id="&lt;Group&gt;">
					<path id="&lt;Path&gt;" class="s4" d="m163.1 116.4c0 12.1-9.8 21.9-21.9 21.9-12.1 0-21.9-9.8-21.9-21.9 0-12.1 9.8-21.9 21.9-21.9 12.1 0 21.9 9.8 21.9 21.9z"/>
					<path id="&lt;Path&gt;" class="s5" d="m163.1 116.4c0 12.1-9.8 21.9-21.9 21.9-12.1 0-21.9-9.8-21.9-21.9 0-12.1 9.8-21.9 21.9-21.9 12.1 0 21.9 9.8 21.9 21.9z"/>
				</g>
				<path id="&lt;Path&gt;" class="s6" d="m133.7 99.8c-3.1 0-6 0.7-8.7 1.8-3.5 3.9-5.7 9.1-5.7 14.8 0 12.1 9.8 21.9 21.9 21.9 3.1 0 6-0.7 8.7-1.8q0 0 0 0c3.5-3.9 5.7-9.1 5.7-14.8 0-12.1-9.8-21.9-21.9-21.9z"/>
				<path id="&lt;Path&gt;" class="s6" d="m131.5 105.6c0 1.1-0.9 2-2 2-1.1 0-2-0.9-2-2 0-1.1 0.9-2 2-2 1.1 0 2 0.9 2 2z"/>
				<path id="&lt;Path&gt;" class="s6" d="m155.1 103.6c0 1.1-0.9 2-2 2-1.1 0-2-0.9-2-2 0-1.1 0.9-2 2-2 1.1 0 2 0.9 2 2z"/>
				<path id="&lt;Path&gt;" class="s6" d="m151.1 117.9c0 1.8-1.5 3.3-3.3 3.3-1.8 0-3.3-1.5-3.3-3.3 0-1.8 1.5-3.3 3.3-3.3 1.8 0 3.3 1.5 3.3 3.3z"/>
				<path id="&lt;Path&gt;" class="s6" d="m140.6 127.2c0 2.5-1.9 4.4-4.3 4.4-2.5 0-4.4-1.9-4.4-4.4 0-2.4 1.9-4.3 4.4-4.3 2.4 0 4.3 1.9 4.3 4.3z"/>
			</g>
			<g id="&lt;Group&gt;">
				<g id="&lt;Group&gt;">
					<path id="&lt;Path&gt;" class="s4" d="m401.4 376.2c0 10.7-8.6 19.3-19.2 19.3-10.6 0-19.2-8.6-19.2-19.3 0-10.6 8.6-19.2 19.2-19.2 10.6 0 19.2 8.6 19.2 19.2z"/>
					<path id="&lt;Path&gt;" class="s7" d="m401.4 376.2c0 10.7-8.6 19.3-19.2 19.3-10.6 0-19.2-8.6-19.2-19.3 0-10.6 8.6-19.2 19.2-19.2 10.6 0 19.2 8.6 19.2 19.2z"/>
				</g>
				<path id="&lt;Path&gt;" class="s8" d="m394.3 361.3q-2.6-0.8-5.5-0.8c-10.6 0-19.2 8.6-19.2 19.3 0 6 2.7 11.3 7.1 14.9q2.6 0.8 5.5 0.8c10.6 0 19.2-8.6 19.2-19.3 0-6-2.7-11.3-7.1-14.9z"/>
				<path id="&lt;Path&gt;" class="s4" d="m363.8 381.9c-20.5 9.7-5.2 17.2 23.7 6.8 26.8-9.7 37-21.8 13.1-18 1.2 5.1-32.3 18.1-36.8 11.2z"/>
			</g>
		</g>
	</g>
	<g id="Astronaut">
		<g id="&lt;Group&gt;">
			<path id="&lt;Path&gt;" class="s9" d="m394.1 187.8c-26.9 18.2-61.7 42.2-71.3 99.8h-2.1c9.4-56.9 42.9-81.5 69.8-99.8z"/>
			<g id="&lt;Group&gt;">
				<path id="&lt;Path&gt;" class="s4" d="m255 368.3c-17 0-33.8-7.7-42-20.2-5-7.8-10.9-24 6.6-45.6l1.5 1.3c-12.3 15.3-14.6 30.6-6.4 43.2 10 15.3 33.6 23 53.7 17.5 20.7-5.6 33.2-23.5 34.4-49.2 4.1-87.8 50.8-114.9 84.8-134.6 21.2-12.3 36.5-21.2 33.1-39.9-0.4-2.6-1.5-4.3-3.1-5.4-4.4-2.9-12.9-0.9-22.7 1.4-19.3 4.5-45.8 10.6-61.5-16.2l1.7-1c15 25.5 39.6 19.8 59.3 15.2 10.3-2.4 19.2-4.4 24.3-1.1 2.1 1.4 3.4 3.6 4 6.8 3.6 20.1-13 29.7-34.1 41.9-33.6 19.5-79.7 46.3-83.8 133-1.3 26.6-14.3 45.2-35.8 51-4.6 1.3-9.3 1.9-14 1.9z"/>
				<path id="&lt;Path&gt;" class="s10" d="m255 368.3c-17 0-33.8-7.7-42-20.2-5-7.8-10.9-24 6.6-45.6l1.5 1.3c-12.3 15.3-14.6 30.6-6.4 43.2 10 15.3 33.6 23 53.7 17.5 20.7-5.6 33.2-23.5 34.4-49.2 4.1-87.8 50.8-114.9 84.8-134.6 21.2-12.3 36.5-21.2 33.1-39.9-0.4-2.6-1.5-4.3-3.1-5.4-4.4-2.9-12.9-0.9-22.7 1.4-19.3 4.5-45.8 10.6-61.5-16.2l1.7-1c15 25.5 39.6 19.8 59.3 15.2 10.3-2.4 19.2-4.4 24.3-1.1 2.1 1.4 3.4 3.6 4 6.8 3.6 20.1-13 29.7-34.1 41.9-33.6 19.5-79.7 46.3-83.8 133-1.3 26.6-14.3 45.2-35.8 51-4.6 1.3-9.3 1.9-14 1.9z"/>
			</g>
			<g id="&lt;Group&gt;">
				<g id="&lt;Group&gt;">
					<path id="&lt;Path&gt;" class="s4" d="m312.8 96.9c6.8-0.1 13.5 2.2 13.5 2.2 0 0 11 18.8 12.3 23-0.4 4.3-7.6 11.2-7.6 11.2z"/>
					<path id="&lt;Path&gt;" class="s7" d="m312.8 96.9c6.8-0.1 13.5 2.2 13.5 2.2 0 0 11 18.8 12.3 23-0.4 4.3-7.6 11.2-7.6 11.2z"/>
				</g>
				<g id="&lt;Group&gt;">
					<g id="&lt;Group&gt;">
						<path id="&lt;Path&gt;" class="s4" d="m345.3 188.1c-4.1-5.2-8.2-10.6-11.5-16.4q-1.3-2.1-2.4-4.4-0.7-1.2-1.3-2.5c-0.3-0.8-1.1-1.9-1.2-2.7-1.2-12.7 3.2-22-1-32.2l-16.5 6.4c0 0 1.4 18.2 4.6 29 2 6.7 6.5 12.6 10.8 17.9 1.4 1.7 2.7 3.5 4.1 5.1 1.2 1.6 2.7 3.1 4 4.7 1.9 2.4 2.5 4.7 1.1 7.6q-0.2 0.2-0.3 0.4c-0.4 0.8 1.6 1.6 2.8 0 2-2.5 1.7-2.4 3.5-4.6 1-1.3 2.2-2.8 3.3-4 1-1.2 1-3 0-4.3z"/>
						<path id="&lt;Path&gt;" class="s5" d="m345.3 188.1c-4.1-5.2-8.2-10.6-11.5-16.4q-1.3-2.1-2.4-4.4-0.7-1.2-1.3-2.5c-0.3-0.8-1.1-1.9-1.2-2.7-1.2-12.7 3.2-22-1-32.2l-16.5 6.4c0 0 1.4 18.2 4.6 29 2 6.7 6.5 12.6 10.8 17.9 1.4 1.7 2.7 3.5 4.1 5.1 1.2 1.6 2.7 3.1 4 4.7 1.9 2.4 2.5 4.7 1.1 7.6q-0.2 0.2-0.3 0.4c-0.4 0.8 1.6 1.6 2.8 0 2-2.5 1.7-2.4 3.5-4.6 1-1.3 2.2-2.8 3.3-4 1-1.2 1-3 0-4.3z"/>
					</g>
					<path id="&lt;Path&gt;" class="s11" d="m341.3 182.9c-2.2 2.7-6.7 6.1-8.7 7.5q0.7 0.8 1.3 1.5c4.1-2.7 7.3-6.1 8.5-7.5q-0.5-0.7-1.1-1.5z"/>
					<path id="&lt;Path&gt;" class="s11" d="m345.3 188.1q0 0-0.1-0.1c-0.7 0.7-1.2 1.9-1.2 3.2-0.1 0.9 0 1.7 0.3 2.3q0.5-0.6 1-1.1c1-1.2 1-3 0-4.3z"/>
				</g>
				<g id="&lt;Group&gt;">
					<g id="&lt;Group&gt;">
						<path id="&lt;Path&gt;" class="s4" d="m308.8 109c-1.7 2.5-3.7 4.9-6.3 7.1q-2 1.7-4.5 3-1.2 0.7-2.5 1.1l-0.7 0.2-0.2 0.1q-0.3 0.1-0.5 0.1-0.5 0.1-0.9 0.2c-1.1 0-1.8-0.1-2.5-0.3-1.3-0.3-2.1-0.8-2.9-1.2q-1.2-0.7-2.2-1.5c-1.3-0.9-2.5-1.9-3.6-3-2.2-2.1-4.1-4.3-5.9-6.7-0.9-1.1-0.7-2.7 0.5-3.5 0.8-0.7 1.9-0.7 2.8-0.2l0.1 0.1c2.3 1.5 4.7 3.1 7 4.5 1.2 0.7 2.4 1.4 3.5 1.9 0.5 0.3 1.1 0.5 1.6 0.7 0.5 0.2 0.9 0.3 1.1 0.3 0 0-0.1-0.1-0.4-0.1q-0.2 0-0.4 0.1-0.1 0-0.2 0c-0.1 0.1 0 0 0 0l0.4-0.2q0.6-0.3 1.3-0.7c0.8-0.6 1.6-1.4 2.5-2.2 1.6-1.6 3.2-3.6 4.9-5.8 1.7-2.2 4.9-2.5 7-0.8 2.1 1.6 2.5 4.6 1 6.8z"/>
						<path id="&lt;Path&gt;" class="s5" d="m308.8 109c-1.7 2.5-3.7 4.9-6.3 7.1q-2 1.7-4.5 3-1.2 0.7-2.5 1.1l-0.7 0.2-0.2 0.1q-0.3 0.1-0.5 0.1-0.5 0.1-0.9 0.2c-1.1 0-1.8-0.1-2.5-0.3-1.3-0.3-2.1-0.8-2.9-1.2q-1.2-0.7-2.2-1.5c-1.3-0.9-2.5-1.9-3.6-3-2.2-2.1-4.1-4.3-5.9-6.7-0.9-1.1-0.7-2.7 0.5-3.5 0.8-0.7 1.9-0.7 2.8-0.2l0.1 0.1c2.3 1.5 4.7 3.1 7 4.5 1.2 0.7 2.4 1.4 3.5 1.9 0.5 0.3 1.1 0.5 1.6 0.7 0.5 0.2 0.9 0.3 1.1 0.3 0 0-0.1-0.1-0.4-0.1q-0.2 0-0.4 0.1-0.1 0-0.2 0c-0.1 0.1 0 0 0 0l0.4-0.2q0.6-0.3 1.3-0.7c0.8-0.6 1.6-1.4 2.5-2.2 1.6-1.6 3.2-3.6 4.9-5.8 1.7-2.2 4.9-2.5 7-0.8 2.1 1.6 2.5 4.6 1 6.8z"/>
					</g>
					<g id="&lt;Group&gt;">
						<path id="&lt;Path&gt;" class="s4" d="m272.3 102.4l1.2 2c0 0 0.9 2.6 2.6 3.1l4.9-1.6-0.2-0.4q0 0 0 0c-0.7-0.9-0.6-2.8-0.4-4.3 0.2-1.5-0.5-1.6-1.1-1.2-0.4 0.2-0.6 0.9-0.9 1.7q-0.3-0.5-0.8-1l-1.4-1.4c-0.7-0.7-1.7-0.7-2.4-0.1l-1.2 1.1c-0.6 0.5-0.7 1.4-0.3 2.1z"/>
						<path id="&lt;Path&gt;" class="s5" d="m272.3 102.4l1.2 2c0 0 0.9 2.6 2.6 3.1l4.9-1.6-0.2-0.4q0 0 0 0c-0.7-0.9-0.6-2.8-0.4-4.3 0.2-1.5-0.5-1.6-1.1-1.2-0.4 0.2-0.6 0.9-0.9 1.7q-0.3-0.5-0.8-1l-1.4-1.4c-0.7-0.7-1.7-0.7-2.4-0.1l-1.2 1.1c-0.6 0.5-0.7 1.4-0.3 2.1z"/>
					</g>
				</g>
				<g id="&lt;Group&gt;">
					<path id="&lt;Path&gt;" class="s4" d="m317.7 95.2c-4.7 1.2-11.1 3.8-15.4 6.5-1.5 0.9-2.3 2.8-1.9 4.5 1.9 9.5 6.3 22.1 11 30.1l22.2-9.1c0.1-3.9-5.3-16.5-10.7-28.7-1-2.2-2.9-3.8-5.2-3.3z"/>
					<path id="&lt;Path&gt;" class="s12" d="m317.7 95.2c-4.7 1.2-11.1 3.8-15.4 6.5-1.5 0.9-2.3 2.8-1.9 4.5 1.9 9.5 6.3 22.1 11 30.1l22.2-9.1c0.1-3.9-5.3-16.5-10.7-28.7-1-2.2-2.9-3.8-5.2-3.3z"/>
				</g>
				<path id="&lt;Path&gt;" class="s11" d="m326.3 106.2l-4.4-1.5c1 2.6 4.5 5.9 7 7.8q-1.2-3-2.6-6.3z"/>
				<g id="&lt;Group&gt;">
					<path id="&lt;Path&gt;" class="s4" d="m316.2 85.3c-1.8-3.5-5.8-5.2-10.5-4.8-4 0.3-7.5 4.4-7.1 6.6 0.4 2.2 3.8 3.1 4.4 3.9l-2.8 2c-1.4 1-1.7 3-0.6 4.3 1.2 1.5 2.7 3 3.6 4.1 7.7-0.2 13.3-3.1 15.4-5.9-0.8-3.6-0.6-6.7-2.4-10.2z"/>
					<path id="&lt;Path&gt;" class="s12" d="m316.2 85.3c-1.8-3.5-5.8-5.2-10.5-4.8-4 0.3-7.5 4.4-7.1 6.6 0.4 2.2 3.8 3.1 4.4 3.9l-2.8 2c-1.4 1-1.7 3-0.6 4.3 1.2 1.5 2.7 3 3.6 4.1 7.7-0.2 13.3-3.1 15.4-5.9-0.8-3.6-0.6-6.7-2.4-10.2z"/>
				</g>
				<path id="&lt;Path&gt;" class="s13" d="m312.5 87.5c1.5 3.9-0.4 8.3-4.3 9.8-3.9 1.5-8.3-0.4-9.8-4.3-1.6-3.9 0.4-8.3 4.3-9.8 3.8-1.5 8.2 0.4 9.8 4.3z"/>
				<g id="&lt;Group&gt;">
					<g id="&lt;Group&gt;">
						<path id="&lt;Path&gt;" class="s4" d="m377.4 177.6c-0.1-3.3-0.3-3-0.4-5.8 0-1.7 0-3.6 0-5.2 0-1.6-1.2-3-2.7-3.3q-2-0.4-4-0.8c-1.7-0.3-3.4-0.7-5.1-1.2q-2-0.6-3.9-1.3-2.1-0.7-4.1-1.6-2.4-1-4.7-2.2-2.6-1.2-5.2-2.5c-6.5-10.9-6.7-18.1-13.7-26.5l-15.2 6.9c0 0 11.1 19.7 18.7 28.1 4.4 4.8 11.2 7 17.4 8.6 4.4 1.1 8.8 2 13.3 2.8 1.7 0.3 3.6 0.5 5.1 1.5 1.2 0.8 1.8 2.1 2.2 3.4q0.1 0.5 0.2 0.9c0.1 0.8 2.2 0.2 2.1-1.8z"/>
						<path id="&lt;Path&gt;" class="s12" d="m377.4 177.6c-0.1-3.3-0.3-3-0.4-5.8 0-1.7 0-3.6 0-5.2 0-1.6-1.2-3-2.7-3.3q-2-0.4-4-0.8c-1.7-0.3-3.4-0.7-5.1-1.2q-2-0.6-3.9-1.3-2.1-0.7-4.1-1.6-2.4-1-4.7-2.2-2.6-1.2-5.2-2.5c-6.5-10.9-6.7-18.1-13.7-26.5l-15.2 6.9c0 0 11.1 19.7 18.7 28.1 4.4 4.8 11.2 7 17.4 8.6 4.4 1.1 8.8 2 13.3 2.8 1.7 0.3 3.6 0.5 5.1 1.5 1.2 0.8 1.8 2.1 2.2 3.4q0.1 0.5 0.2 0.9c0.1 0.8 2.2 0.2 2.1-1.8z"/>
					</g>
					<path id="&lt;Path&gt;" class="s11" d="m369.7 162.4q-0.9-0.2-1.8-0.4c0 3.4-1.6 9.4-2.2 11.2q1 0.2 1.9 0.4c1.8-4.8 2.1-9.8 2.1-11.2z"/>
					<path id="&lt;Path&gt;" class="s11" d="m377 166.6c-0.1-1.6-1.2-3-2.7-3.3q-0.5-0.1-1-0.2c0.1 1 0.7 2.1 1.6 2.9 0.7 0.6 1.4 1 2.1 1.2q0-0.3 0-0.6z"/>
				</g>
				<path id="&lt;Path&gt;" class="s14" d="m311 87.5c0.5 1.6-1.2 3.2-2.6 1.8-1.1-1-2.8-2.8-4.1-3.7-1.4-0.8 0.4-2.3 2.6-1.8 2.1 0.6 3.7 2.2 4.1 3.7z"/>
				<g id="&lt;Group&gt;">
					<path id="&lt;Path&gt;" class="s4" d="m311.2 135.9c-0.7 0.2 0.5 1.4 0.5 1.4 0 0 14-4.8 22.5-9.7 0.1-1-0.6-1.6-0.6-1.6 0 0-10.4 5.4-22.4 9.9z"/>
					<path id="&lt;Path&gt;" class="s15" d="m311.2 135.9c-0.7 0.2 0.5 1.4 0.5 1.4 0 0 14-4.8 22.5-9.7 0.1-1-0.6-1.6-0.6-1.6 0 0-10.4 5.4-22.4 9.9z"/>
				</g>
				<g id="&lt;Group&gt;">
					<g id="&lt;Group&gt;">
						<path id="&lt;Path&gt;" class="s4" d="m321.5 94.6c2.7 1.4 5.3 2.8 7.9 4.5q1.9 1.2 3.8 2.5c1.3 0.9 2.6 1.8 3.8 2.9l0.5 0.4 0.6 0.5c0.4 0.4 0.7 0.7 1 1q0.5 0.6 0.9 1.1 0.4 0.5 0.8 1c1 1.3 1.8 2.7 2.6 4 1.5 2.7 2.8 5.4 3.9 8.3 0.5 1.3-0.1 2.8-1.5 3.3-0.9 0.4-2 0.1-2.7-0.6v-0.1c-2-2.1-4-4.4-5.9-6.4-1.9-2.1-3.9-4.3-5.5-5.2-2.3-1.4-4.8-2.8-7.3-4.2l-7.6-4.2c-2.4-1.3-3.3-4.4-2-6.8 1.3-2.4 4.3-3.2 6.7-2z"/>
						<path id="&lt;Path&gt;" class="s12" d="m321.5 94.6c2.7 1.4 5.3 2.8 7.9 4.5q1.9 1.2 3.8 2.5c1.3 0.9 2.6 1.8 3.8 2.9l0.5 0.4 0.6 0.5c0.4 0.4 0.7 0.7 1 1q0.5 0.6 0.9 1.1 0.4 0.5 0.8 1c1 1.3 1.8 2.7 2.6 4 1.5 2.7 2.8 5.4 3.9 8.3 0.5 1.3-0.1 2.8-1.5 3.3-0.9 0.4-2 0.1-2.7-0.6v-0.1c-2-2.1-4-4.4-5.9-6.4-1.9-2.1-3.9-4.3-5.5-5.2-2.3-1.4-4.8-2.8-7.3-4.2l-7.6-4.2c-2.4-1.3-3.3-4.4-2-6.8 1.3-2.4 4.3-3.2 6.7-2z"/>
					</g>
					<g id="&lt;Group&gt;">
						<path id="&lt;Path&gt;" class="s4" d="m349.7 125.7l-0.8-2.1c0 0-0.5-2.7-2.2-3.5l-5 0.8 0.2 0.5q-0.1 0-0.1 0c0.5 1 0.2 2.8-0.3 4.3-0.4 1.4 0.3 1.6 1 1.3 0.3-0.1 0.7-0.8 1.1-1.5q0.2 0.6 0.6 1.1l1.2 1.6c0.5 0.8 1.6 1 2.3 0.5l1.4-0.9c0.7-0.4 0.9-1.3 0.6-2.1z"/>
						<path id="&lt;Path&gt;" class="s12" d="m349.7 125.7l-0.8-2.1c0 0-0.5-2.7-2.2-3.5l-5 0.8 0.2 0.5q-0.1 0-0.1 0c0.5 1 0.2 2.8-0.3 4.3-0.4 1.4 0.3 1.6 1 1.3 0.3-0.1 0.7-0.8 1.1-1.5q0.2 0.6 0.6 1.1l1.2 1.6c0.5 0.8 1.6 1 2.3 0.5l1.4-0.9c0.7-0.4 0.9-1.3 0.6-2.1z"/>
					</g>
				</g>
				<g id="&lt;Group&gt;">
					<g id="&lt;Group&gt;">
						<path id="&lt;Path&gt;" class="s11" d="m317.2 106.1l-1.2 0.1-7.5 18q0.7 0.1 1.3-0.1c0 0 9.7-3.6 12.7-4.9-2-4.1-5.3-13.1-5.3-13.1z"/>
						<path id="&lt;Path&gt;" class="s14" d="m303.6 110.8c0.4 3.3 2.8 10.2 4.9 13.4 3.7-1.2 9.8-3.6 12.7-4.9-1.9-4.1-4-9.8-5.2-13.1-3.1 0.2-10 2.8-12.4 4.6z"/>
					</g>
					<path id="&lt;Path&gt;" class="s11" d="m311 114.7c-0.4 1.4-1.8 2.2-3.2 1.7-1.4-0.4-2.2-1.8-1.7-3.2 0.4-1.3 1.8-2.1 3.2-1.7 1.3 0.4 2.1 1.8 1.7 3.2z"/>
					<path id="&lt;Path&gt;" class="s16" d="m312.9 111.3c-0.1 0.4-0.6 0.7-1 0.5-0.5-0.1-0.7-0.6-0.6-1 0.1-0.5 0.6-0.7 1-0.6 0.5 0.1 0.7 0.6 0.6 1.1z"/>
					<path id="&lt;Path&gt;" class="s16" d="m315.1 110.4c-0.1 0.4-0.6 0.7-1 0.6-0.5-0.2-0.7-0.6-0.6-1.1 0.2-0.4 0.6-0.7 1.1-0.6 0.4 0.2 0.7 0.7 0.5 1.1z"/>
					<path id="&lt;Path&gt;" class="s17" d="m318.3 118.2l-9.3 3.6-0.5-1.8 9.2-3.6z"/>
				</g>
			</g>
		</g>
	</g>
	<g id="Rocket">
		<g id="&lt;Group&gt;">
			<path id="&lt;Path&gt;" class="s9" d="m267.3 257.2q-0.3 11.3-1.7 17.3-1.8 7.7-5.5 11.3-3.7 3.6-8.8 3.6-7.7 0-11.8-8.4-0.7-1.4-1.2-3.1c-5.7 4.9-11 10.2-15.9 16l-5.3 6.2q4.3 4.4 9.7 7.2 9.4 4.9 24.5 4.9 2.7 0 5.2-0.2c6.1-9 11.2-18.8 15.1-29l14.9-38.7z"/>
			<g id="&lt;Group&gt;">
				<g id="&lt;Group&gt;">
					<path id="&lt;Path&gt;" class="s13" d="m133.4 310c5.6 5.6 17.5 17.5 17.5 17.5l49-46.2c-16.9-6.4-49.7 11.9-66.5 28.7z"/>
					<path id="&lt;Path&gt;" class="s13" d="m194.4 371c-5.6-5.6-17.5-17.5-17.5-17.5l46.2-49c6.4 16.8-11.9 49.7-28.7 66.5z"/>
					<g id="&lt;Group&gt;">
						<path id="&lt;Path&gt;" class="s4" d="m261.4 260.7l19.1-36.8-36.8 19.1c-11.8 6.1-22.8 13.9-32.5 23l-62.7 59.1 30.8 30.8 59.1-62.8c9.1-9.7 16.9-20.6 23-32.4z"/>
						<path id="&lt;Path&gt;" class="s18" d="m261.4 260.7l19.1-36.8-36.8 19.1c-11.8 6.1-22.8 13.9-32.5 23l-62.7 59.1 30.8 30.8 59.1-62.8c9.1-9.7 16.9-20.6 23-32.4z"/>
					</g>
					<path id="&lt;Path&gt;" class="s14" d="m231.3 291.3c-5 5-13.2 5-18.2 0-5.1-5-5.1-13.2 0-18.2 5-5.1 13.2-5.1 18.2 0 5.1 5 5.1 13.2 0 18.2z"/>
					<path id="&lt;Path&gt;" class="s4" d="m228.1 288c-3.3 3.3-8.5 3.3-11.8 0-3.2-3.2-3.2-8.4 0-11.7 3.3-3.2 8.5-3.2 11.8 0 3.2 3.3 3.2 8.5 0 11.7z"/>
					<path id="&lt;Path&gt;" class="s11" d="m189.7 344.8l-30.1-30.2 24.7-23.2 28.7 28.7z"/>
					<g id="&lt;Group&gt;">
						<path id="&lt;Path&gt;" class="s4" d="m140.2 337.6c-22.6 1.9-30.1 16.3-32.6 35.6-1.3 9.8-1.9 19.7-10.1 25.4-2.3 1.6-1.2 5.2 1.6 5.1 30.3-1 44.5-15.8 46.3-22-0.7 3.9-1.5 7-2.5 9.4-1 2.5 1.7 4.9 4 3.4 8.5-5.3 19.2-15.1 19.9-31-6.3-8.9-26.6-25.9-26.6-25.9z"/>
						<path id="&lt;Path&gt;" class="s10" d="m140.2 337.6c-22.6 1.9-30.1 16.3-32.6 35.6-1.3 9.8-1.9 19.7-10.1 25.4-2.3 1.6-1.2 5.2 1.6 5.1 30.3-1 44.5-15.8 46.3-22-0.7 3.9-1.5 7-2.5 9.4-1 2.5 1.7 4.9 4 3.4 8.5-5.3 19.2-15.1 19.9-31-6.3-8.9-26.6-25.9-26.6-25.9z"/>
					</g>
					<path id="&lt;Path&gt;" class="s4" d="m170.3 370.3l-36.2-36.2 19.3-4.2 21 21.1z"/>
				</g>
			</g>
		</g>
	</g>
</svg>