<svg preserveAspectRatio="none" width="100%" height="100%" overflow="visible" style="display: block;" viewBox="0 0 15 15" fill="none" xmlns="http://www.w3.org/2000/svg">
<g id="kCi2oBWoU6lwg4HC8Y8TekodM.svg">
<path id="Vector" d="M8.125 1.875C8.125 1.70924 8.05915 1.55027 7.94194 1.43306C7.82473 1.31585 7.66576 1.25 7.5 1.25C7.33424 1.25 7.17527 1.31585 7.05806 1.43306C6.94085 1.55027 6.875 1.70924 6.875 1.875V6.875H1.875C1.70924 6.875 1.55027 6.94085 1.43306 7.05806C1.31585 7.17527 1.25 7.33424 1.25 7.5C1.25 7.66576 1.31585 7.82473 1.43306 7.94194C1.55027 8.05915 1.70924 8.125 1.875 8.125H6.875V13.125C6.875 13.2908 6.94085 13.4497 7.05806 13.5669C7.17527 13.6842 7.33424 13.75 7.5 13.75C7.66576 13.75 7.82473 13.6842 7.94194 13.5669C8.05915 13.4497 8.125 13.2908 8.125 13.125V8.125H13.125C13.2908 8.125 13.4497 8.05915 13.5669 7.94194C13.6842 7.82473 13.75 7.66576 13.75 7.5C13.75 7.33424 13.6842 7.17527 13.5669 7.05806C13.4497 6.94085 13.2908 6.875 13.125 6.875H8.125V1.875Z" fill="var(--fill-0, white)"/>
</g>
</svg>
