<?xml version="1.0" encoding="UTF-8" standalone="no"?>
<svg
  version="1.1"
  id="svg1"
  viewBox="900 923 1082 1038"
  xmlns="http://www.w3.org/2000/svg">
  <g id="g1">
    <path
      id="path3"
      d="m 12353.6,7026.61 1951,3389.09 c 19.2,28.8 46.3,78.3 79.9,150.2 35.1,71.9 60.7,124.7 79.9,158.2 v 0 0 c 196.5,378.7 295.6,781.4 295.6,1208 v 0 c 0,723.8 -258.9,1345.4 -778.2,1863.1 -467.4,468.9 -1020.9,725.5 -1659.2,770.9 l -784.9,-1658.4 c 170.6,104.7 362.5,157.3 576.2,157.3 v 0 c 313.2,0 580,-111.9 800.5,-334 222.2,-223.7 332.4,-488.9 332.4,-798.9 v 0 c 0,-311.6 -110.2,-578.4 -332.4,-800.5 -220.5,-220.6 -487.3,-332.4 -800.5,-332.4 v 0 c -311.6,0 -576.8,111.8 -797.3,332.4 -220.6,222.1 -330.8,488.9 -330.8,800.5 v 0 c 0,157.3 28.4,303.1 85.2,437.7 l 43.4,90.8 0.2,0.3 0.4,0.8 3.2,6.7 1007.6,2105 h -11.4 -0.5 H 6840 V 13065 h 2673.07 210.83 c -166.32,-344.5 -249.7,-722.2 -249.7,-1132.9 v 0 c 0,-691.9 236.5,-1292.7 711.1,-1799.2 474.5,-508.13 1053,-786.17 1736.9,-835.71 L 10621.5,7026.61 h 1732.1"
      style="fill:#fff;fill-opacity:1;fill-rule:nonzero;stroke:none"
      transform="matrix(0.13333333,0,0,-0.13333333,0,2880)"/>
    <path
      id="path4"
      d="m 9289.81,12147.1 v 0 L 6840,7026.61 h 3560.7 l 54.5,95.12 811.4,1416.47 H 9236.81 l 738.12,1542 -10.24,11.7 -0.49,0.6 -9.65,11.2 -1.58,1.8 -8.51,9.9 -2.6,3.1 -7.4,8.8 -3.61,4.3 -6.3,7.5 -4.62,5.6 -5.25,6.3 -5.6,6.8 -10.73,13.2 -3.13,3.9 -7.53,9.3 -2.08,2.7 -8.49,10.6 -1.08,1.4 -9.38,11.9 -0.08,0.1 -9.4,12.1 -0.88,1.1 -20.46,26.8 -6.39,8.4 -3.69,5 -5.38,7.2 -4.62,6.3 -4.4,6 -5.52,7.5 -3.43,4.7 -6.38,8.8 -2.48,3.5 -7.23,10.1 -1.55,2.2 -8.07,11.4 -0.62,0.9 -8.64,12.4 -0.27,0.4 -8.29,12 -1.17,1.7 -7.28,10.7 -2.07,3 -6.36,9.5 -2.88,4.3 -5.43,8.1 -3.73,5.7 -4.54,6.9 -4.53,6.9 -3.62,5.6 -5.35,8.3 -2.75,4.3 -6.14,9.6 -1.87,3 -6.91,11 -1.06,1.6 -7.64,12.4 -0.21,0.3 -7.8,12.7 -0.6,1 -7.12,11.7 -1.39,2.3 -6.25,10.5 -2.17,3.6 -5.38,9.2 -2.93,5 -4.57,7.8 -3.67,6.4 -3.73,6.4 -4.4,7.7 -2.93,5.2 -5.11,9.1 -2.15,3.8 -5.82,10.5 -1.35,2.5 -6.5,11.8 -0.63,1.1 -7.04,13 -0.1,0.3 -6.82,12.8 -0.84,1.6 -6.04,11.4 -1.55,3 -1.52,2.9 c -6.77,13 -13.43,26.1 -19.95,39.2 l -0.71,1.4 -3.01,6.1 -4.19,8.4 -2.3,4.8 -4.82,9.9 -1.63,3.3 -5.41,11.3 -0.92,2 -6.01,12.7 -0.27,0.6 -6.17,13.3 -0.38,0.8 -5.73,12.5 -1,2.2 -5.06,11.2 -1.6,3.7 -4.35,9.7 -2.2,5.1 -6.01,13.7 -0.46,1.1 -3.02,7.1 -3.34,7.9 -2.39,5.6 -3.89,9.3 -1.77,4.2 -4.43,10.7 -1.16,2.9 -4.92,12.1 -0.57,1.5 -5.44,13.6 c -127.65,323 -191.38,669.9 -191.38,1040.3 v 3.4 3.4 l 0.03,3.4 v 3.4 l 0.03,3.4 v 1.1 2.3 l 0.03,3.4 0.11,10.2 0.02,2.2 v 1.2 l 0.08,6.7 0.06,3.4 0.05,3.4 0.06,3.3 v 0.1 l 0.05,3.4 0.06,3.4 0.07,3.3 0.06,3.4 0.08,3.4 0.03,1 0.05,2.3 0.09,3.4 0.08,3.4 0.08,3.4 0.11,3.3 0.05,2.2 0.03,1.2 0.11,3.4 0.1,3.3 0.33,10 v 0.1 l 0.11,3.4 0.24,6.7 0.14,3.3 0.11,3.4 0.05,1 0.09,2.3 0.13,3.4 0.16,3.3 0.14,3.4 0.16,3.3 0.08,2.1 0.06,1.3 0.16,3.3 0.17,3.4 0.16,3.3 0.16,3.4 0.16,3.1 v 0.2 l 0.2,3.3 0.16,3.4 0.19,3.3 0.19,3.3 0.19,3.4 0.05,0.9 0.14,2.4 0.19,3.3 0.19,3.3 0.22,3.4 0.19,3.3 0.13,2 0.09,1.3 0.21,3.4 0.22,3.3 0.22,3.3 0.24,3.3 0.19,3.1 0.03,0.2"
      style="fill:#fff;fill-opacity:1;fill-rule:nonzero;stroke:none"
      transform="matrix(0.13333333,0,0,-0.13333333,0,2880)"/>
  </g>
</svg>
